HIERARCHY
ROOT hip
{
  OFFSET -0.10946 89.6834 -0.668895
  CHANNELS 6 Xposition Yposition Zposition Zrotation Xrotation Yrotation
  JOINT abdomen
  {
    OFFSET 0 7.2397 0
    CHANNELS 6 Xposition Yposition Zposition Zrotation Xrotation Yrotation
    JOINT chest
    {
      OFFSET 0 16.546 0
      CHANNELS 6 Xposition Yposition Zposition Zrotation Xrotation Yrotation
      JOINT neck
      {
        OFFSET 0 34.2149 0
        CHANNELS 6 Xposition Yposition Zposition Zrotation Xrotation Yrotation
        JOINT head
        {
          OFFSET 0 6.2923 0
          CHANNELS 6 Xposition Yposition Zposition Zrotation Xrotation Yrotation
          End Site
          {
            OFFSET 0 21.2161 0
          }
        }
      }
      JOINT lCollar
      {
        OFFSET 4.0639 26.6115 -1.1234
        CHANNELS 6 Xposition Yposition Zposition Zrotation Xrotation Yrotation
        JOINT lShldr
        {
          OFFSET 14.1772 0 0
          CHANNELS 6 Xposition Yposition Zposition Zrotation Xrotation Yrotation
          JOINT lForeArm
          {
            OFFSET 26.1234 0 0
            CHANNELS 6 Xposition Yposition Zposition Zrotation Xrotation Yrotation
            JOINT lHand
            {
              OFFSET 27.7188 0 0
              CHANNELS 6 Xposition Yposition Zposition Zrotation Xrotation Yrotation
              JOINT lThumb1
              {
                OFFSET 2.2979 -0.4685 1.8313
                CHANNELS 6 Xposition Yposition Zposition Zrotation Xrotation Yrotation
                JOINT lThumb2
                {
                  OFFSET 5.2953 0 0
                  CHANNELS 6 Xposition Yposition Zposition Zrotation Xrotation Yrotation
                  JOINT lThumb3
                  {
                    OFFSET 3.0181 0 0
                    CHANNELS 6 Xposition Yposition Zposition Zrotation Xrotation Yrotation
                    End Site
                    {
                      OFFSET 2.6294 0 0
                    }
                  }
                }
              }
              JOINT lIndex1
              {
                OFFSET 9.3793 0.2991 2.5924
                CHANNELS 6 Xposition Yposition Zposition Zrotation Xrotation Yrotation
                JOINT lIndex2
                {
                  OFFSET 4.3461 0 0
                  CHANNELS 6 Xposition Yposition Zposition Zrotation Xrotation Yrotation
                  JOINT lIndex3
                  {
                    OFFSET 2.1666 0 0
                    CHANNELS 6 Xposition Yposition Zposition Zrotation Xrotation Yrotation
                    End Site
                    {
                      OFFSET 2.2048 0 0
                    }
                  }
                }
              }
              JOINT lMid1
              {
                OFFSET 9.4769 0.8376 0.2947
                CHANNELS 6 Xposition Yposition Zposition Zrotation Xrotation Yrotation
                JOINT lMid2
                {
                  OFFSET 4.772 0 0
                  CHANNELS 6 Xposition Yposition Zposition Zrotation Xrotation Yrotation
                  JOINT lMid3
                  {
                    OFFSET 2.8722 0 0
                    CHANNELS 6 Xposition Yposition Zposition Zrotation Xrotation Yrotation
                    End Site
                    {
                      OFFSET 2.0959 0 0
                    }
                  }
                }
              }
              JOINT lRing1
              {
                OFFSET 8.6586 1.0176 -1.7016
                CHANNELS 6 Xposition Yposition Zposition Zrotation Xrotation Yrotation
                JOINT lRing2
                {
                  OFFSET 4.5461 0 0
                  CHANNELS 6 Xposition Yposition Zposition Zrotation Xrotation Yrotation
                  JOINT lRing3
                  {
                    OFFSET 2.506 0 0
                    CHANNELS 6 Xposition Yposition Zposition Zrotation Xrotation Yrotation
                    End Site
                    {
                      OFFSET 2.2023 0 0
                    }
                  }
                }
              }
              JOINT lPinky1
              {
                OFFSET 7.6901 0.6618 -3.9096
                CHANNELS 6 Xposition Yposition Zposition Zrotation Xrotation Yrotation
                JOINT lPinky2
                {
                  OFFSET 3.2119 0 0
                  CHANNELS 6 Xposition Yposition Zposition Zrotation Xrotation Yrotation
                  JOINT lPinky3
                  {
                    OFFSET 1.924 0 0
                    CHANNELS 6 Xposition Yposition Zposition Zrotation Xrotation Yrotation
                    End Site
                    {
                      OFFSET 1.7829 0 0
                    }
                  }
                }
              }
            }
          }
        }
      }
      JOINT rCollar
      {
        OFFSET -4.0677 26.6109 -1.1234
        CHANNELS 6 Xposition Yposition Zposition Zrotation Xrotation Yrotation
        JOINT rShldr
        {
          OFFSET -14.1772 0 0
          CHANNELS 6 Xposition Yposition Zposition Zrotation Xrotation Yrotation
          JOINT rForeArm
          {
            OFFSET -26.1234 0 0
            CHANNELS 6 Xposition Yposition Zposition Zrotation Xrotation Yrotation
            JOINT rHand
            {
              OFFSET -27.7188 0 0
              CHANNELS 6 Xposition Yposition Zposition Zrotation Xrotation Yrotation
              JOINT rThumb1
              {
                OFFSET -2.2979 -0.4684 1.8313
                CHANNELS 6 Xposition Yposition Zposition Zrotation Xrotation Yrotation
                JOINT rThumb2
                {
                  OFFSET -5.2953 0 0
                  CHANNELS 6 Xposition Yposition Zposition Zrotation Xrotation Yrotation
                  JOINT rThumb3
                  {
                    OFFSET -3.0181 0 0
                    CHANNELS 6 Xposition Yposition Zposition Zrotation Xrotation Yrotation
                    End Site
                    {
                      OFFSET -2.6294 0 0
                    }
                  }
                }
              }
              JOINT rIndex1
              {
                OFFSET -9.3793 0.2991 2.5924
                CHANNELS 6 Xposition Yposition Zposition Zrotation Xrotation Yrotation
                JOINT rIndex2
                {
                  OFFSET -4.3461 0 0
                  CHANNELS 6 Xposition Yposition Zposition Zrotation Xrotation Yrotation
                  JOINT rIndex3
                  {
                    OFFSET -2.1666 0 0
                    CHANNELS 6 Xposition Yposition Zposition Zrotation Xrotation Yrotation
                    End Site
                    {
                      OFFSET -2.2048 0 0
                    }
                  }
                }
              }
              JOINT rMid1
              {
                OFFSET -9.4769 0.8376 0.2947
                CHANNELS 6 Xposition Yposition Zposition Zrotation Xrotation Yrotation
                JOINT rMid2
                {
                  OFFSET -4.772 0 0
                  CHANNELS 6 Xposition Yposition Zposition Zrotation Xrotation Yrotation
                  JOINT rMid3
                  {
                    OFFSET -2.8722 0 0
                    CHANNELS 6 Xposition Yposition Zposition Zrotation Xrotation Yrotation
                    End Site
                    {
                      OFFSET -2.0959 0 0
                    }
                  }
                }
              }
              JOINT rRing1
              {
                OFFSET -8.6586 1.0176 -1.7016
                CHANNELS 6 Xposition Yposition Zposition Zrotation Xrotation Yrotation
                JOINT rRing2
                {
                  OFFSET -4.5461 0 0
                  CHANNELS 6 Xposition Yposition Zposition Zrotation Xrotation Yrotation
                  JOINT rRing3
                  {
                    OFFSET -2.506 0 0
                    CHANNELS 6 Xposition Yposition Zposition Zrotation Xrotation Yrotation
                    End Site
                    {
                      OFFSET -2.2023 0 0
                    }
                  }
                }
              }
              JOINT rPinky1
              {
                OFFSET -7.6901 0.6618 -3.9096
                CHANNELS 6 Xposition Yposition Zposition Zrotation Xrotation Yrotation
                JOINT rPinky2
                {
                  OFFSET -3.2119 0 0
                  CHANNELS 6 Xposition Yposition Zposition Zrotation Xrotation Yrotation
                  JOINT rPinky3
                  {
                    OFFSET -1.924 0 0
                    CHANNELS 6 Xposition Yposition Zposition Zrotation Xrotation Yrotation
                    End Site
                    {
                      OFFSET -1.7829 0 0
                    }
                  }
                }
              }
            }
          }
        }
      }
    }
  }
  JOINT lThigh
  {
    OFFSET 8.7379 -0.0029 0.0005
    CHANNELS 6 Xposition Yposition Zposition Zrotation Xrotation Yrotation
    JOINT lShin
    {
      OFFSET 0 -46.6676 0
      CHANNELS 6 Xposition Yposition Zposition Zrotation Xrotation Yrotation
      JOINT lFoot
      {
        OFFSET 0 -40.1476 0
        CHANNELS 6 Xposition Yposition Zposition Zrotation Xrotation Yrotation
        JOINT lToes
        {
          OFFSET 0 -8.8846 14.2294
          CHANNELS 6 Xposition Yposition Zposition Zrotation Xrotation Yrotation
          End Site
          {
            OFFSET 0 0 6.296
          }
        }
      }
    }
  }
  JOINT rThigh
  {
    OFFSET -8.7379 0.0029 -0.0005
    CHANNELS 6 Xposition Yposition Zposition Zrotation Xrotation Yrotation
    JOINT rShin
    {
      OFFSET 0 -46.6676 0
      CHANNELS 6 Xposition Yposition Zposition Zrotation Xrotation Yrotation
      JOINT rFoot
      {
        OFFSET 0 -40.1476 0
        CHANNELS 6 Xposition Yposition Zposition Zrotation Xrotation Yrotation
        JOINT rToes
        {
          OFFSET 0 -8.8846 14.2294
          CHANNELS 6 Xposition Yposition Zposition Zrotation Xrotation Yrotation
          End Site
          {
            OFFSET 0 0 6.296
          }
        }
      }
    }
  }
}
MOTION
Frames:	4
Frame Time:	0.0333333
0.00379935 90.1885 0.0814795 -3.56603 -3.74864 -43.4963 -6.93889e-17 7.2397 1.77636e-15 -1.60539 6.24017 7.85317 0 16.546 0 -4.10998 14.1133 16.1025 -6.66134e-16 34.2149 0 0.80866 29.467 -1.46061 -4.44089e-16 6.2923 1.42109e-14 -0.12021 -30.0788 20.394 4.0639 26.6115 -1.1234 1.99544 -3.12123 5.90196 14.1772 0 -3.55271e-15 -71.9334 -0.519818 -2.09379 26.1234 1.42109e-14 0 3.20183 6.89104 -50.0017 27.7188 0 7.10543e-15 9.91516 11.9433 -1.00108 2.2979 -0.4685 1.8313 62.544 75.8798 -95.1268 5.2953 0 0 0.226538 3.0393 0.843439 3.0181 7.10543e-15 0 12.4883 -8.89576e-05 -1.15514e-05 9.3793 0.2991 2.5924 -2.31154 -1.21443 -8.52928 4.3461 0 -1.42109e-14 -20.6547 -0.338071 2.32124 2.1666 0 7.10543e-15 -2.1684 -4.60372e-06 -7.16229e-06 9.4769 0.8376 0.2947 -9.57722 -4.59303 7.36866 4.772 0 0 -23.4909 -0.423451 1.68087 2.8722 0 0 3.95741 0.0710973 0.399406 8.6586 1.0176 -1.7016 -26.2521 -2.9787 12.8977 4.5461 -1.42109e-14 0 -33.6586 0.687436 -1.56985 2.506 0 0 6.7605 -7.2134e-07 -9.80431e-05 7.6901 0.6618 -3.9096 -25.5629 -15.4726 17.2269 3.2119 0 0 -41.1985 -0.0284704 3.92444 1.924 -3.55271e-15 -3.55271e-15 4.41309 -2.97104e-06 -5.78056e-06 -4.0677 26.6109 -1.1234 1.36224 -2.9524 2.41316 -14.1772 0 -3.55271e-15 62.8909 -11.1227 -22.0228 -26.1234 0 -7.10543e-15 7.2425 2.39946 42.7392 -27.7188 0 3.55271e-15 18.562 3.61628 7.21329 -2.2979 -0.4684 1.8313 -37.1936 60.4099 62.6648 -5.2953 0 -3.55271e-15 19.7928 1.45553 -7.42013 -3.0181 0 -2.22045e-15 -12.4883 -8.58915e-05 9.62211e-05 -9.3793 0.2991 2.5924 -0.180222 -2.45937 0.448065 -4.3461 0 0 17.7438 -0.207089 -2.81555 -2.1666 0 0 2.1682 -3.29169e-06 -1.38716e-06 -9.4769 0.8376 0.2947 7.18561 -5.18021 -2.0277 -4.772 0 -1.06581e-14 36.3123 -1.035 -2.79812 -2.8722 -3.55271e-15 0 -3.95751 0.0709985 -0.399397 -8.6586 1.0176 -1.7016 19.1049 1.98537 -7.71445 -4.5461 5.32907e-15 -1.77636e-15 40.4019 1.21499 2.46619 -2.506 -1.42109e-14 3.55271e-15 -6.7605 3.1619e-06 5.16273e-07 -7.6901 0.6618 -3.9096 16.4146 -9.19032 -10.9169 -3.2119 -7.10543e-15 3.55271e-15 48.2628 0.456844 -3.05666 -1.924 -1.42109e-14 0 -4.413 -9.04429e-07 2.54191e-06 8.7379 -0.0029 0.0005 14.3097 -21.6228 20.4763 0 -46.6676 0 7.04617 37.8705 -16.7388 3.55271e-15 -40.1476 0 -7.47493 -10.1158 7.28489 0 -8.8846 14.2294 0.0001 0 3.18055e-15 -8.7379 0.0029 -0.0005 -15.0674 1.40238 -22.3835 0 -46.6676 0 -4.14305 35.8463 -7.89138 -7.10543e-15 -40.1476 1.33227e-15 20.7189 -22.3797 -3.7276 0 -8.8846 14.2294 -1.98785e-16 -1.2424e-17 3.97569e-16 
-0.0106074 90.1798 0.0680803 -3.55364 -3.74577 -43.4944 2.08167e-17 7.2397 0 -1.61473 6.2637 7.85883 -4.44089e-16 16.546 -4.44089e-16 -4.12993 14.1589 16.1165 6.66134e-16 34.2149 -7.10543e-15 0.818051 29.3917 -1.46853 4.44089e-16 6.2923 0 -0.108693 -30.2048 20.3875 4.0639 26.6115 -1.1234 1.80659 -3.13855 5.80504 14.1772 0 3.55271e-15 -71.8749 -0.537685 -2.1213 26.1234 -1.42109e-14 -7.10543e-15 3.1977 6.85555 -49.9504 27.7188 0 7.10543e-15 9.49975 11.9369 -0.921318 2.2979 -0.4685 1.8313 62.525 75.826 -95.1165 5.2953 0 0 0.227603 3.03864 0.847417 3.0181 7.10543e-15 7.10543e-15 12.4883 -8.89576e-05 -1.15514e-05 9.3793 0.2991 2.5924 -2.78153 -1.14302 -8.54152 4.3461 1.42109e-14 0 -21.4222 -0.369733 2.29929 2.1666 0 7.10543e-15 -2.1684 -4.60372e-06 -7.16229e-06 9.4769 0.8376 0.2947 -9.52817 -4.58634 7.41346 4.772 0 -7.10543e-15 -23.4529 -0.422349 1.67959 2.8722 0 0 3.95741 0.0710973 0.399406 8.6586 1.0176 -1.7016 -26.2075 -2.96969 12.9453 4.5461 -7.10543e-15 0 -33.6241 0.686599 -1.56933 2.506 0 -3.55271e-15 6.7605 -7.2134e-07 -9.80431e-05 7.6901 0.6618 -3.9096 -25.5143 -15.4588 17.2759 3.2119 0 0 -41.1649 -0.0259731 3.91728 1.924 -7.10543e-15 0 4.41309 -2.97104e-06 -5.78056e-06 -4.0677 26.6109 -1.1234 1.55054 -2.94072 2.50883 -14.1772 -2.84217e-14 -3.55271e-15 62.8684 -11.1404 -21.9941 -26.1234 -1.42109e-14 0 7.22545 2.31533 42.7226 -27.7188 0 3.55271e-15 18.565 3.66951 7.23345 -2.2979 -0.4684 1.8313 -37.2311 60.4151 62.7277 -5.2953 0 0 19.7798 1.45183 -7.43161 -3.0181 -7.10543e-15 -1.77636e-15 -12.4883 -8.58915e-05 9.62211e-05 -9.3793 0.2991 2.5924 -0.387076 -2.46119 0.446384 -4.3461 7.10543e-15 -3.55271e-15 17.15 -0.177926 -2.81908 -2.1666 3.55271e-15 3.55271e-15 2.1682 -3.29169e-06 -1.38716e-06 -9.4769 0.8376 0.2947 7.18782 -5.18046 -2.02583 -4.772 0 7.10543e-15 36.2242 -1.03082 -2.79425 -2.8722 7.10543e-15 3.55271e-15 -3.95751 0.0709985 -0.399397 -8.6586 1.0176 -1.7016 19.0609 1.99156 -7.71471 -4.5461 5.32907e-15 1.77636e-15 40.3529 1.21272 2.46466 -2.506 -7.10543e-15 0 -6.7605 3.1619e-06 5.16273e-07 -7.6901 0.6618 -3.9096 16.4172 -9.19067 -10.9188 -3.2119 0 0 49.0076 0.419242 -3.18085 -1.924 7.10543e-15 -1.77636e-15 -4.413 -9.04429e-07 2.54191e-06 8.7379 -0.0029 0.0005 14.3207 -21.6404 20.4807 0 -46.6676 7.10543e-15 7.04792 37.8851 -16.7452 -3.55271e-15 -40.1476 -1.77636e-15 -7.48678 -10.1212 7.28339 -3.55271e-15 -8.8846 14.2294 0.0001 0 -3.18055e-15 -8.7379 0.0029 -0.0005 -15.0668 1.37071 -22.3858 0 -46.6676 3.55271e-15 -4.15478 35.8991 -7.8883 0 -40.1476 8.88178e-16 20.7243 -22.4149 -3.71947 0 -8.8846 14.2294 -9.93923e-17 6.21202e-18 -0 
-0.0250241 90.1733 0.0580781 -3.5428 -3.74443 -43.4918 -6.93889e-18 7.2397 0 -1.62263 6.28285 7.86359 0 16.546 -4.44089e-16 -4.14674 14.1959 16.1283 0 34.2149 0 0.825557 29.3247 -1.4747 0 6.2923 -1.42109e-14 -0.0914394 -30.3309 20.3862 4.0639 26.6115 -1.1234 1.64518 -3.15342 5.72179 14.1772 0 -3.55271e-15 -71.8272 -0.551884 -2.14438 26.1234 0 0 3.19309 6.82535 -49.9082 27.7188 0 0 9.10627 11.9294 -0.846362 2.2979 -0.4685 1.8313 62.5134 75.7807 -95.1121 5.2953 7.10543e-15 0 0.228699 3.03802 0.851506 3.0181 0 0 12.4883 -8.89576e-05 -1.15514e-05 9.3793 0.2991 2.5924 -3.2237 -1.07535 -8.5524 4.3461 1.42109e-14 -7.10543e-15 -22.1432 -0.399318 2.27857 2.1666 0 7.10543e-15 -2.1684 -4.60372e-06 -7.16229e-06 9.4769 0.8376 0.2947 -9.48816 -4.58086 7.44953 4.772 0 7.10543e-15 -23.4222 -0.421457 1.67855 2.8722 0 0 3.95741 0.0710973 0.399406 8.6586 1.0176 -1.7016 -26.1705 -2.96226 12.9836 4.5461 -1.42109e-14 -3.55271e-15 -33.5961 0.685911 -1.56892 2.506 0 3.55271e-15 6.7605 -7.2134e-07 -9.80431e-05 7.6901 0.6618 -3.9096 -25.4747 -15.4474 17.3152 3.2119 0 3.55271e-15 -41.1375 -0.0239457 3.91145 1.924 -7.10543e-15 3.55271e-15 4.41309 -2.97104e-06 -5.78056e-06 -4.0677 26.6109 -1.1234 1.71022 -2.93068 2.58926 -14.1772 2.84217e-14 3.55271e-15 62.8522 -11.1549 -21.9709 -26.1234 -1.42109e-14 7.10543e-15 7.20976 2.24372 42.7105 -27.7188 0 3.55271e-15 18.5781 3.71535 7.25098 -2.2979 -0.4684 1.8313 -37.2664 60.4142 62.7852 -5.2953 0 7.10543e-15 19.7601 1.45046 -7.43867 -3.0181 7.10543e-15 3.10862e-15 -12.4883 -8.58915e-05 9.62211e-05 -9.3793 0.2991 2.5924 -0.55871 -2.46263 0.445119 -4.3461 0 -3.55271e-15 16.6605 -0.153891 -2.82199 -2.1666 -7.10543e-15 -3.55271e-15 2.1682 -3.29169e-06 -1.38716e-06 -9.4769 0.8376 0.2947 7.19014 -5.18073 -2.02389 -4.772 -3.55271e-15 7.10543e-15 36.1779 -1.02867 -2.79222 -2.8722 -3.55271e-15 0 -3.95751 0.0709985 -0.399397 -8.6586 1.0176 -1.7016 19.0369 1.99502 -7.71449 -4.5461 1.77636e-15 -3.55271e-15 40.324 1.2113 2.46378 -2.506 0 -1.77636e-15 -6.7605 3.1619e-06 5.16273e-07 -7.6901 0.6618 -3.9096 16.4191 -9.19099 -10.9208 -3.2119 -1.77636e-15 0 49.613 0.389213 -3.28195 -1.924 -7.10543e-15 1.77636e-15 -4.413 -9.04429e-07 2.54191e-06 8.7379 -0.0029 0.0005 14.3291 -21.652 20.4843 1.77636e-15 -46.6676 7.10543e-15 7.04859 37.895 -16.7515 3.55271e-15 -40.1476 1.77636e-15 -7.49695 -10.1261 7.28213 0 -8.8846 14.2294 0.0001 0 -0 -8.7379 0.0029 -0.0005 -15.0659 1.34835 -22.3875 0 -46.6676 0 -4.1637 35.9394 -7.8875 0 -40.1476 -1.33227e-15 20.729 -22.444 -3.71264 0 -8.8846 14.2294 -4.31046e-35 6.21202e-18 3.97569e-16 
-0.0433222 90.1638 0.0391656 -3.52182 -3.73972 -43.482 3.46945e-18 7.2397 0 -1.6371 6.30346 7.86992 0 16.546 0 -4.17517 14.235 16.1441 -1.55431e-15 34.2149 -7.10543e-15 0.818525 29.2462 -1.47025 0 6.2923 0 -0.119268 -30.2902 20.3647 4.0639 26.6115 -1.1234 1.47989 -3.16857 5.63308 14.1772 5.68434e-14 -7.10543e-15 -71.7355 -0.576701 -2.17281 26.1234 -1.42109e-14 0 3.18177 6.77851 -49.8551 27.7188 0 0 8.72475 11.9037 -0.775218 2.2979 -0.4685 1.8313 62.559 75.7274 -95.1784 5.2953 0 -7.10543e-15 0.231714 3.03801 0.862639 3.0181 0 0 12.4883 -8.89576e-05 -1.15514e-05 9.3793 0.2991 2.5924 -3.78391 -0.984629 -8.55544 4.3461 0 0 -23.0947 -0.436127 2.24968 2.1666 1.42109e-14 0 -2.1684 -4.60372e-06 -7.16229e-06 9.4769 0.8376 0.2947 -9.43872 -4.5723 7.50206 4.772 0 -7.10543e-15 -23.3746 -0.420083 1.67692 2.8722 0 -7.10543e-15 3.95741 0.0710973 0.399406 8.6586 1.0176 -1.7016 -26.1254 -2.94911 13.0386 4.5461 0 3.55271e-15 -33.5451 0.684391 -1.56827 2.506 0 0 6.7605 -7.2134e-07 -9.80431e-05 7.6901 0.6618 -3.9096 -25.4146 -15.4252 17.3658 3.2119 0 3.55271e-15 -41.0849 -0.0206836 3.90004 1.924 0 0 4.41309 -2.97104e-06 -5.78056e-06 -4.0677 26.6109 -1.1234 1.85217 -2.91997 2.65101 -14.1772 2.84217e-14 0 62.8417 -11.1841 -21.963 -26.1234 0 -7.10543e-15 7.17795 2.13556 42.728 -27.7188 0 0 18.5618 3.77594 7.28734 -2.2979 -0.4684 1.8313 -37.2579 60.4101 62.7683 -5.2953 0 -5.32907e-15 19.7394 1.45848 -7.43783 -3.0181 -7.10543e-15 -8.88178e-16 -12.4883 -8.58915e-05 9.62211e-05 -9.3793 0.2991 2.5924 -0.574453 -2.46175 0.447142 -4.3461 7.10543e-15 3.55271e-15 16.661 -0.153965 -2.82191 -2.1666 0 0 2.1682 -3.29169e-06 -1.38716e-06 -9.4769 0.8376 0.2947 7.20928 -5.1826 -2.01477 -4.772 -7.10543e-15 -3.55271e-15 36.0786 -1.02527 -2.78711 -2.8722 3.55271e-15 0 -3.95751 0.0709985 -0.399397 -8.6586 1.0176 -1.7016 18.9722 2.00421 -7.7138 -4.5461 0 0 40.2468 1.20755 2.46178 -2.506 0 -1.77636e-15 -6.7605 3.1619e-06 5.16273e-07 -7.6901 0.6618 -3.9096 16.4129 -9.19151 -10.9293 -3.2119 1.77636e-15 -1.77636e-15 48.7012 0.440424 -3.13162 -1.924 7.10543e-15 0 -4.413 -9.04429e-07 2.54191e-06 8.7379 -0.0029 0.0005 14.3396 -21.6766 20.4886 0 -46.6676 0 7.04627 37.9036 -16.762 0 -40.1476 5.32907e-15 -7.51023 -10.1259 7.28154 0 -8.8846 14.2294 0.0001 0 -0 -8.7379 0.0029 -0.0005 -15.0654 1.30667 -22.3929 0 -46.6676 -3.55271e-15 -4.17685 36.0033 -7.89003 0 -40.1476 -3.10862e-15 20.7354 -22.4873 -3.70343 0 -8.8846 14.2294 9.93923e-17 3.10601e-18 -3.97569e-16 
